<?xml version="1.0" encoding="UTF-8"?>
<svg id="Layer_2" xmlns="http://www.w3.org/2000/svg" viewBox="0 0 268.85 52.87">
  <defs>
    <style>
      .cls-1 {
        fill: #fff;
      }

      .cls-2, .cls-3 {
        fill: #66f;
      }

      .cls-3 {
        stroke: #66f;
        stroke-miterlimit: 10;
      }
    </style>
  </defs>
  <g id="Layer_1-2" data-name="Layer_1">
    <g>
      <path class="cls-2" d="M252.4,1c-46.2,1.15-92.41,3.1-138.49,6.6-28.7,2.45-57.57,4.93-85.75,11.05-5.05,1.25-30.56,6.85-22.99,14.6,3.82,3.63,9.48,5.65,14.63,7.06,0,0-2.53,6-2.53,6C12.01,42.88.69,37.68.48,30.54.24,12.18,96.94,7.85,113.81,6.23,158.52,3.1,207.45,1.5,252.38,0c0,0,.03,1,.03,1h0Z"/>
      <g>
        <path class="cls-1" d="M20.13,44.62h22.65l-1.51,7.36H9.87L19.81,3.95h30.11l-1.54,7.36h-21.32l-2.58,12.42h18.3l-1.51,7.36h-18.3l-2.83,13.53Z"/>
        <path class="cls-1" d="M75.82,43.61c0,.65.17,1.11.52,1.38.35.28.83.41,1.45.41.69,0,1.54-.07,2.55-.22l-1.47,6.82c-1.48.31-2.91.47-4.27.47-1.96,0-3.45-.46-4.47-1.38s-1.66-2.23-1.92-3.93h-.14c-1.65,2.03-3.43,3.49-5.33,4.38s-3.76,1.33-5.58,1.33c-1.56,0-2.96-.29-4.2-.86s-2.3-1.39-3.16-2.44-1.52-2.32-1.97-3.8c-.45-1.48-.68-3.13-.68-4.95,0-1.94.16-3.89.48-5.85s.81-3.85,1.45-5.65c.65-1.81,1.44-3.5,2.39-5.08s2.04-2.95,3.28-4.13c1.24-1.17,2.63-2.09,4.16-2.76,1.53-.67,3.19-1,4.99-1,1.65,0,3.22.35,4.7,1.04,1.48.69,2.78,1.78,3.88,3.27h.14l1.26-3.45h7.25l-5.02,24.23c-.1.45-.17.88-.21,1.27-.05.4-.07.7-.07.92ZM70.86,25.99c-.22-.31-.5-.63-.84-.95-.35-.32-.75-.61-1.22-.86-.47-.25-.98-.46-1.54-.63-.56-.17-1.17-.25-1.81-.25-1.12,0-2.15.27-3.07.81s-1.75,1.26-2.48,2.15c-.73.9-1.36,1.93-1.88,3.09-.53,1.16-.96,2.36-1.31,3.61-.35,1.24-.6,2.47-.77,3.68-.17,1.21-.25,2.33-.25,3.36,0,2.03.32,3.53.95,4.49.63.96,1.56,1.44,2.78,1.44s2.44-.41,3.66-1.24c1.22-.83,2.31-1.96,3.27-3.39.65-.96,1.2-2.05,1.67-3.27.47-1.22.87-2.62,1.2-4.2l1.65-7.82Z"/>
        <path class="cls-1" d="M99.45,41.42c0-.72-.23-1.3-.68-1.76-.45-.45-1.04-.86-1.76-1.2s-1.54-.66-2.46-.95-1.85-.61-2.78-.97c-.86-.33-1.69-.73-2.49-1.18-.8-.45-1.52-1.02-2.15-1.71-.63-.68-1.14-1.49-1.51-2.42-.37-.93-.56-2.06-.56-3.37,0-1.96.37-3.67,1.11-5.11.74-1.45,1.73-2.64,2.98-3.59,1.24-.94,2.69-1.65,4.34-2.12,1.65-.47,3.39-.7,5.2-.7,1.03,0,2.06.07,3.1.2,1.04.13,2.06.31,3.05.54s1.94.49,2.85.79c.91.3,1.73.63,2.48.99l-1.36,6.64c-1.79-.74-3.56-1.3-5.29-1.69-1.74-.38-3.37-.57-4.9-.57-1.65,0-2.92.34-3.82,1-.9.67-1.35,1.54-1.35,2.62,0,.65.16,1.19.48,1.63.32.44.75.83,1.29,1.17.54.33,1.16.63,1.87.9.71.26,1.44.54,2.21.83.98.36,1.97.75,2.98,1.18s1.91,1,2.73,1.71c.81.71,1.48,1.57,1.99,2.6.51,1.03.77,2.32.77,3.88,0,1.99-.38,3.73-1.13,5.24-.75,1.51-1.83,2.78-3.21,3.8-1.39,1.03-3.04,1.8-4.95,2.32-1.91.51-4.04.77-6.39.77-1.32,0-2.56-.07-3.73-.22-1.17-.14-2.23-.32-3.18-.54-.95-.21-1.77-.44-2.48-.68-.71-.24-1.26-.45-1.67-.65l1.4-6.78c1.58.62,3.18,1.11,4.79,1.45,1.62.35,3.25.52,4.9.52,2.39,0,4.21-.4,5.46-1.2s1.87-1.92,1.87-3.36Z"/>
        <path class="cls-1" d="M134.46,24.2h-9.04l-3.45,16.76c-.12.53-.21.99-.27,1.38s-.09.74-.09,1.02c0,.89.24,1.5.72,1.85s1.32.52,2.51.52c.81,0,1.85-.09,3.12-.27,1.27-.18,2.4-.39,3.41-.63l-1.4,7.07c-1.15.31-2.4.55-3.75.72-1.35.17-2.63.25-3.82.25-1.65,0-3.08-.17-4.27-.52-1.2-.35-2.18-.84-2.96-1.49-.78-.65-1.35-1.44-1.72-2.37-.37-.93-.56-1.99-.56-3.16,0-.41.02-.89.07-1.45.05-.56.16-1.24.32-2.03l3.66-17.66h-6.5l1.47-7h6.46l2.05-9.73h8.47l-2.01,9.73h9.04l-1.47,7Z"/>
        <path class="cls-1" d="M165.49,25.85c0,1.94-.47,3.68-1.42,5.22-.95,1.54-2.34,2.86-4.18,3.95-1.84,1.09-4.12,1.92-6.82,2.49s-5.81.86-9.33.86c-.41,0-.92-.01-1.54-.04v.22c0,1.27.18,2.38.56,3.32.37.95.91,1.72,1.61,2.31.71.6,1.56,1.04,2.57,1.31,1,.28,2.13.41,3.37.41,1.87,0,3.83-.23,5.89-.68,2.06-.45,3.85-1.06,5.38-1.83l-1.54,7.46c-1.48.6-3.18,1.08-5.08,1.45-1.9.37-3.93.56-6.08.56-2.56,0-4.79-.35-6.67-1.04-1.89-.69-3.45-1.67-4.68-2.92s-2.15-2.75-2.75-4.47c-.6-1.72-.9-3.62-.9-5.71,0-1.84.19-3.67.57-5.49s.95-3.56,1.69-5.22,1.66-3.21,2.76-4.63c1.1-1.42,2.37-2.66,3.82-3.7,1.45-1.04,3.07-1.86,4.86-2.46,1.79-.6,3.75-.9,5.85-.9,1.84,0,3.5.23,4.99.68s2.75,1.09,3.79,1.92,1.85,1.82,2.42,3c.57,1.17.86,2.48.86,3.91ZM156.95,25.85c0-.79-.31-1.47-.93-2.05-.62-.57-1.57-.86-2.84-.86-.96,0-1.93.19-2.92.57-.99.38-1.93.95-2.8,1.71-.87.75-1.66,1.67-2.35,2.76-.69,1.09-1.24,2.34-1.65,3.75,2.54,0,4.67-.17,6.39-.5s3.11-.78,4.16-1.33c1.05-.55,1.81-1.18,2.26-1.88.45-.71.68-1.43.68-2.17Z"/>
        <path class="cls-1" d="M190.64,24.48c-1.03-.24-2.02-.36-2.98-.36-.86,0-1.73.1-2.62.29-.89.19-1.75.5-2.58.93-.84.43-1.63,1-2.37,1.7-.74.71-1.39,1.59-1.94,2.64-.26.5-.52,1.11-.77,1.83-.25.72-.51,1.71-.77,2.98l-3.62,17.48h-8.47l7.21-34.78h7.21v4.38h.14c1.36-1.65,2.88-2.94,4.56-3.86,1.67-.92,3.64-1.38,5.89-1.38.89,0,1.81.07,2.76.22l-1.65,7.93Z"/>
        <path class="cls-1" d="M216.68,39.73h-17.05l-6.64,12.24h-9.76L210,3.95h8.18l9.76,48.02h-8.97l-2.3-12.24ZM203.65,32.38h11.66l-.97-5.17c-.79-4.14-1.42-7.98-1.9-11.52h-.21c-1.7,3.78-3.54,7.48-5.53,11.09l-3.05,5.6Z"/>
        <path class="cls-1" d="M259.95,43.61c0,.55.15.99.45,1.31s.81.48,1.53.48c.67,0,1.52-.07,2.55-.22l-1.47,6.82c-.65.14-1.36.26-2.15.34-.79.08-1.5.13-2.12.13-1.96,0-3.45-.46-4.47-1.38-1.02-.92-1.66-2.23-1.92-3.93h-.14c-1.65,2.03-3.43,3.49-5.33,4.38-1.9.88-3.76,1.33-5.58,1.33-1.56,0-2.96-.29-4.2-.86s-2.3-1.39-3.16-2.44-1.52-2.32-1.97-3.8c-.46-1.48-.68-3.13-.68-4.95,0-1.94.17-3.89.5-5.85s.82-3.85,1.45-5.65c.63-1.81,1.42-3.5,2.35-5.08.93-1.58,2-2.95,3.21-4.13,1.21-1.17,2.55-2.09,4.02-2.76,1.47-.67,3.07-1,4.79-1s3.29.35,4.7,1.06,2.63,1.79,3.66,3.25h.14L260.38,0h8.47l-8.61,41.42c-.1.45-.17.88-.22,1.27-.05.4-.07.7-.07.92ZM254.96,26.13c-.22-.31-.5-.63-.84-.97s-.75-.64-1.2-.92c-.46-.27-.96-.5-1.53-.68-.56-.18-1.17-.27-1.81-.27-1.12,0-2.15.27-3.07.81s-1.74,1.26-2.46,2.15-1.35,1.93-1.88,3.09c-.54,1.16-.98,2.36-1.33,3.61-.35,1.24-.6,2.47-.77,3.68-.17,1.21-.25,2.33-.25,3.36,0,2.03.32,3.53.95,4.49.63.96,1.56,1.44,2.78,1.44,1.32,0,2.62-.47,3.91-1.4,1.29-.93,2.44-2.21,3.45-3.84,1.05-1.77,1.87-4.03,2.44-6.78l1.62-7.75Z"/>
      </g>
      <polygon class="cls-3" points="11.52 31.24 12.91 36.99 17.67 33.48 15.05 38.78 20.95 39.16 15.53 41.53 19.81 45.61 14.14 43.94 14.79 49.82 11.52 44.9 8.24 49.82 8.89 43.94 3.22 45.61 7.5 41.53 2.09 39.16 7.98 38.78 5.36 33.48 10.12 36.99 11.52 31.24"/>
    </g>
  </g>
</svg>